 <svg xmlns="http://www.w3.org/2000/svg" viewBox="13.539 -55.184 509.302 533.721" xmlns:bx="https://boxy-svg.com">
  <defs>
    <path id="path-0" d="M 382.813 473.145 C 318.093 380.806 296.951 352.076 288.086 349.121 C 269.92 342.74 251.636 335.301 235.352 331.543 C 217.424 327.549 217.773 324.359 217.773 312.012 C 217.773 297.125 259.962 294.013 266.602 292.48 C 297.671 291.504 321.599 279.785 344.727 279.785 C 364.812 277.011 378.334 273.926 394.531 273.926 L 397.461 274.902 C 401.79 274.902 399.521 281.303 402.344 282.715" style="fill: none;"></path>
    <path id="path-1" d="M 78.125 101.074 C 104.134 105.379 122.957 110.84 131.836 110.84 C 136.744 112.818 150.697 118.652 153.32 118.652 C 158.068 119.629 170.789 122.449 172.852 124.512 C 181.234 125.488 189.163 126.042 196.289 128.418 C 203.776 128.418 210.286 128.418 216.797 128.418 C 224.409 128.418 231.854 117.267 236.328 112.793 C 240.561 104.977 249.405 104.217 252.93 97.168 C 261.177 90.874 266.426 89.355 275.391 89.355 C 281.546 89.355 292.448 101.465 293.945 105.957 C 300.4 113.388 305.154 115.723 314.453 115.723 L 316.406 115.723 C 320.779 115.723 324.219 117.124 324.219 111.816" style="fill: none;"></path>
    <path id="path-2" d="M 128.094 92.203 C 138.606 89.109 140.902 87.871 143.564 87.871 C 146.671 84.764 153.382 82.921 155.941 82.921 C 162.341 82.302 167.693 80.446 173.267 80.446 C 178.424 80.446 182.343 80.446 186.262 80.446 C 192.445 80.446 195.646 79.929 198.639 82.921 C 202.466 82.921 205.804 88.49 208.54 88.49 C 211.297 90.178 215.544 96.535 216.584 96.535 C 217.203 99.693 222.153 100.191 222.153 103.342 C 224.311 103.342 226.965 109.871 227.723 111.386 C 228.946 111.99 232.054 119.782 232.054 120.049 C 233.378 124.638 233.911 128.915 233.911 133.045 C 234.53 139.433 235.149 143.144 235.149 147.277 C 235.149 150.674 234.586 155.997 236.386 157.797 C 236.386 162.335 236.386 165.635 236.386 168.936 C 236.386 174.711 236.386 179.249 236.386 183.787 C 236.386 188.329 232.673 190.519 232.673 193.069 C 229.935 196.071 224.583 195.591 222.153 198.02 C 216.555 202.999 208.094 209.579 202.351 211.015 C 197.827 211.015 192.789 212.252 188.738 212.252 C 178.587 214.654 172.398 214.109 166.46 214.109 C 159.483 214.109 154.454 211.634 149.752 211.634 C 145.762 210.716 138.701 206.683 136.757 206.683 C 131.237 205.446 129.551 201.952 126.856 199.257 C 123.117 195.518 121.905 191.212 118.812 188.119 C 116.741 183.143 112.863 179.934 110.767 175.743 C 109.143 171.255 107.054 168.23 107.054 164.604 C 106.436 159.713 104.579 157.866 104.579 153.465 C 103.96 148.532 102.723 144.916 102.723 141.089 C 102.723 136.139 102.723 131.807 102.723 127.475 C 102.723 123.232 103.342 118.919 103.342 115.718 C 103.96 109.688 107.569 104.169 109.53 100.248 C 114.167 90.973 118.511 85.379 121.906 78.589 C 123.762 73.216 131.907 69.826 134.282 67.451 C 138.383 63.35 141.245 63.041 144.802 61.262 C 147.032 48.5 147.954 36.954 150.99 27.847 C 150.99 15.883 150.99 6.394 150.99 -3.094 C 150.99 -15.264 150.99 -24.34 150.99 -33.416 L 150.99 -37.129 C 150.99 -43.455 151.934 -53.806 149.134 -59.406" style="fill: none;"></path>
    <linearGradient bx:pinned="true" id="color-0">
      <stop style="stop-color: #2193b0;" offset="0"></stop>
      <stop style="stop-color: #6dd5ed;" offset="1"></stop>
    </linearGradient>
    <path id="path-3" d="M 254.951 214.728 C 275.578 214.728 281.353 214.728 287.129 214.728 C 292.285 214.728 296.823 214.728 301.361 214.728 C 306.724 214.728 310.231 214.728 313.738 214.728 C 316.357 214.728 323.535 215.243 324.876 216.584 C 330.239 216.584 334.181 217.822 338.49 217.822 C 343.859 217.822 347.059 219.059 350.866 219.059 C 356.352 219.059 360.973 220.297 364.48 220.297 C 370.349 220.297 373.657 220.916 377.475 220.916 C 382.426 220.916 386.139 220.916 389.851 220.916 C 394.866 220.916 397.099 217.822 400.371 217.822 C 401.609 217.171 407.904 212.199 409.035 211.634 C 411.008 209.041 413.707 206.513 415.842 205.446 C 416.46 203.405 419.783 200.657 420.792 198.639" style="fill: none;"></path>
    <path id="path-4" d="M 219.059 290.223 C 225.672 292.504 233.735 292.698 235.767 292.698 C 240.193 292.698 246.046 294.124 249.381 295.792 C 251.238 296.656 259.981 297.649 261.757 297.649 C 265.918 297.649 271.321 298.605 273.515 296.411 C 276.02 295.173 281.107 292.532 282.178 291.46 C 282.797 289.308 289.266 289.604 291.46 289.604 C 295.792 289.604 299.505 289.604 303.218 289.604 C 307.571 289.604 312.75 291.091 314.356 292.698 C 317.777 293.317 318.95 298.267 322.401 298.267 C 324.836 298.267 329.346 301.5 330.446 302.599 C 334.538 303.218 338.851 305.074 342.822 305.074 C 347.282 305.074 349.011 299.505 350.866 299.505 C 352.682 298.707 358.911 293.979 358.911 293.936 C 360.719 292.698 364.48 289.274 364.48 287.748 L 364.48 287.129 C 366.383 285.226 367.615 281.478 368.812 279.084" style="fill: none;"></path>
    <path id="path-5" d="M 225.248 355.198 C 243.91 355.198 248.695 354.855 253.094 357.054 C 257.584 357.673 261.724 359.53 266.089 359.53 C 269.142 359.53 274.763 361.386 278.465 361.386 C 281.355 363.658 287.304 361.783 290.223 363.243 C 293.674 363.243 299.505 364.649 299.505 366.337 C 304.043 366.337 307.343 366.337 310.644 366.337 C 316.902 366.337 317.812 363.243 321.782 363.243 C 324.592 361.219 330.446 362.053 330.446 358.911 C 334.078 357.673 334.766 353.972 336.634 352.104 C 338.229 350.866 344.899 348.524 347.153 347.772 C 350.456 347.772 355.198 348.195 355.198 350.866 C 357.054 353.229 363.178 354.579 364.48 354.579 C 369.083 354.579 371.158 357.054 373.762 357.054 C 375 358.767 381.677 358.292 383.663 358.292" style="fill: none;"></path>
    <path id="path-6" d="M 254.951 214.728 C 275.578 214.728 281.353 214.728 287.129 214.728 C 292.285 214.728 296.823 214.728 301.361 214.728 C 306.724 214.728 310.231 214.728 313.738 214.728 C 316.357 214.728 323.535 215.243 324.876 216.584 C 330.239 216.584 334.181 217.822 338.49 217.822 C 343.859 217.822 347.059 219.059 350.866 219.059 C 356.352 219.059 360.973 220.297 364.48 220.297 C 370.349 220.297 373.657 220.916 377.475 220.916 C 382.426 220.916 386.139 220.916 389.851 220.916 C 394.866 220.916 397.099 217.822 400.371 217.822 C 401.609 217.171 407.904 212.199 409.035 211.634 C 411.008 209.041 413.707 206.513 415.842 205.446 C 416.46 203.405 419.783 200.657 420.792 198.639" style="fill: none;"></path>
    <path id="path-7" d="M 254.951 214.728 C 275.578 214.728 281.353 214.728 287.129 214.728 C 292.285 214.728 296.823 214.728 301.361 214.728 C 306.724 214.728 310.231 214.728 313.738 214.728 C 316.357 214.728 323.535 215.243 324.876 216.584 C 330.239 216.584 334.181 217.822 338.49 217.822 C 343.859 217.822 347.059 219.059 350.866 219.059 C 356.352 219.059 360.973 220.297 364.48 220.297 C 370.349 220.297 373.657 220.916 377.475 220.916 C 382.426 220.916 386.139 220.916 389.851 220.916 C 394.866 220.916 397.099 217.822 400.371 217.822 C 401.609 217.171 407.904 212.199 409.035 211.634 C 411.008 209.041 413.707 206.513 415.842 205.446 C 416.46 203.405 419.783 200.657 420.792 198.639" style="fill: none;"></path>
    <style bx:fonts="Bagel Fat One">@import url(https://fonts.googleapis.com/css2?family=Bagel+Fat+One%3Aital%2Cwght%400%2C400&amp;display=swap);</style>
    <path id="path-8" d="M 232.725 112.839 C 358.463 134.504 383.865 121.106 376.911 159.351 L 378.074 168.653 C 378.074 171.345 378.655 176.773 378.655 178.537" style="fill: none;"></path>
    <path id="path-9" d="M 253.655 127.374 L 264.702 151.793 C 265.454 153.047 266.856 156.353 267.609 157.607" style="fill: none;"></path>
    <path id="path-10" d="M 130.399 79.119 C 188.067 136.561 209.848 157.822 232.143 178.537 C 246.13 191.533 253.254 196.882 269.934 207.026 C 299.061 224.738 308.904 228.762 340.864 213.421 C 356.426 205.951 369.981 194.292 386.213 188.421 L 402.492 179.7 L 403.074 179.7" style="fill: none;"></path>
    <path id="path-11" d="M 235.632 261.677 L 278.655 288.421 C 312.933 310.701 345.371 339.511 381.562 357.607" style="fill: none;"></path>
    <linearGradient gradientUnits="userSpaceOnUse" x1="340.667" y1="258.667" x2="340.667" y2="430.667" id="gradient-0">
      <stop offset="0" style="stop-color: rgb(100% 100% 100%)"></stop>
      <stop offset="1" style="stop-color: rgb(56.687% 56.687% 56.687%)"></stop>
    </linearGradient>
    <linearGradient gradientUnits="userSpaceOnUse" x1="340.667" y1="258.667" x2="340.667" y2="430.667" id="gradient-1">
      <stop offset="0" style="stop-color: rgb(65.882% 85.49% 86.275%)"></stop>
      <stop offset="1" style="stop-color: rgb(31.432% 50.105% 50.933%)"></stop>
    </linearGradient>
    <path id="path-12" d="M 228.074 357.607 C 263.026 363.335 278.111 374.467 295.516 374.467 C 304.937 376.351 309.88 378.203 315.864 379.7 C 319.154 380.281 324.083 386.174 326.329 388.421 C 333.823 399.08 339.028 400.728 350.167 402.955 C 368.804 405.985 384.07 403.452 399.004 401.793 C 405.526 399.425 411.6 397.142 417.027 397.142" style="fill: none;"></path>
    <path id="path-13" d="M 314.702 362.258 C 351.219 378.076 363.491 382.583 374.004 387.839 C 388.997 396.822 388.544 397.375 399.004 399.467 C 408.943 399.467 413.211 396.888 417.609 392.49 C 420.895 388.673 426.548 375.63 429.236 375.63" style="fill: none;"></path>
    <path id="path-14" d="M 378.655 326.793 C 421.528 328.928 438.014 329.137 450.167 333.188 C 455.563 333.188 460.022 335.514 462.957 335.514 L 464.12 335.514 C 464.12 354.82 468.771 373.765 468.771 393.072" style="fill: none;"></path>
    <path id="path-15" d="M 103.655 373.304 C 201.321 388.032 254.06 401.211 305.399 401.211 C 326.325 402.955 334.666 404.118 342.609 404.118 L 344.353 404.118 C 346.678 404.118 349.004 404.118 351.329 404.118" style="fill: none;"></path>
  </defs>
  <text style="fill: none; font-family: &quot;Bagel Fat One&quot;; font-style: italic; paint-order: stroke markers; white-space: pre;"><textPath href="#path-8"><tspan style="font-size: 8px;">FIND YOUR WAY FIND </tspan><tspan style="font-size: 13px;">YOUR WA</tspan><tspan style="font-size: 14px;">Y </tspan><tspan>FI</tspan><tspan style="font-size: 14px;">N</tspan></textPath></text>
  <text style="fill: none; font-family: &quot;Bagel Fat One&quot;; font-style: italic; paint-order: stroke markers; white-space: pre;"><textPath href="#path-9"><tspan style="font-size: 8px;">FIND </tspan><tspan style="font-size: 9px;">Y</tspan></textPath></text>
  <text style="fill: none; font-family: &quot;Bagel Fat One&quot;; font-style: italic; paint-order: stroke markers; white-space: pre;"><textPath href="#path-10"><tspan style="font-size: 8px;">FIND YOUR </tspan><tspan style="font-size: 9px;">WA</tspan><tspan style="font-size: 18px;">Y FIND Y</tspan><tspan style="font-size: 20px;">O</tspan><tspan style="font-size: 22px;">UR </tspan><tspan style="font-size: 24px;">W</tspan><tspan style="font-size: 23px;">A</tspan><tspan style="font-size: 25px;">Y FI</tspan><tspan style="font-size: 30px;">N</tspan><tspan style="font-size: 31px;">D </tspan></textPath></text>
  <text style="fill: none; font-family: &quot;Bagel Fat One&quot;; font-style: italic; paint-order: stroke markers; white-space: pre;"><textPath href="#path-11"><tspan style="font-size: 8px;">FIND YOUR </tspan><tspan style="font-size: 9px;">WA</tspan><tspan style="font-size: 19px;">Y FIND Y</tspan><tspan style="font-size: 20px;">O</tspan><tspan style="font-size: 19px;">U</tspan></textPath></text>
  <circle style="stroke: rgb(244, 162, 97); fill: rgb(244, 162, 97);" transform="matrix(0.872093, 0, 0, 0.814381, -38.205392, -102.152812)" cx="340.667" cy="344.667" r="122.693"></circle>
  <circle style="fill: rgb(244, 244, 244); stroke: rgb(244, 244, 244);" transform="matrix(0.872093, 0, 0, 0.814381, -38.787091, -102.153125)" cx="340.667" cy="344.667" r="97.467"></circle>
  <path d="M 426.667 344.667 C 426.667 392.163 388.163 430.667 340.667 430.667 C 293.171 430.667 254.667 392.163 254.667 344.667 C 254.667 297.171 293.171 258.667 340.667 258.667 C 388.163 258.667 426.667 297.171 426.667 344.667 Z" style="paint-order: fill; fill-rule: nonzero; stroke: url(#gradient-0); fill-opacity: 0.87; fill: url(#gradient-1);" transform="matrix(0.872093, 0, 0, 0.814381, -39.368467, -102.153125)"></path>
  <circle style="transform-box: fill-box; transform-origin: 50.3792% 51.8566%; stroke: rgb(245, 238, 238); fill: rgb(241, 250, 238);" transform="matrix(0.784216, 0.710788, -1.85462, 2.046211, -57.542085, -192.400763)" cx="278.667" cy="343" r="8"></circle>
  <ellipse style="fill: rgb(168, 218, 220); stroke: rgb(168, 218, 220);" cx="264.411" cy="127.664" rx="13.663" ry="7.268"></ellipse>
  <ellipse style="stroke: rgb(168, 218, 220); fill: rgb(168, 218, 220);" cx="206.562" cy="195.397" rx="7.557" ry="13.953"></ellipse>
  <ellipse style="fill: rgb(168, 218, 220); stroke: rgb(168, 218, 220);" cx="258.306" cy="180.572" rx="11.628" ry="8.43"></ellipse>
  <rect x="251.33" y="275.63" width="16.279" height="24.419" style="fill: rgb(244, 162, 97); stroke: rgb(244, 162, 97);"></rect>
  <ellipse style="fill: rgb(38, 70, 83); stroke: rgb(38, 70, 83);" cx="293.772" cy="299.758" rx="11.047" ry="10.175"></ellipse>
  <ellipse style="fill: rgb(172, 220, 222); stroke: rgb(172, 220, 222);" cx="122.842" cy="181.444" rx="9.884" ry="8.14"></ellipse>
  <path stroke-width="0" d="M 379.414 219.606 C 380.906 219.552 384.671 196.882 392.205 199.112 C 400.103 201.45 388.978 225.227 388.269 228.763 C 386.839 235.898 372.14 260.244 368.45 264.955 C 367.04 266.755 366.724 265.915 365.498 267.135 C 363.482 269.143 358.957 275.461 357.487 277.164 C 356.813 277.945 356.949 277.763 356.221 278.472 C 354.667 279.988 351.915 284.169 347.365 286.757 C 340.551 290.635 322.302 297.776 316.161 297.222 C 312.696 296.91 310.539 294.411 309.836 292.426 C 309.182 290.58 310.763 287.152 311.522 285.885 C 312.006 285.08 311.948 285.373 313.21 284.577 C 317.195 282.063 341.177 270.549 346.101 266.263 C 348.389 264.272 349.658 263.245 350.74 262.048 C 351.654 261.033 353.697 260.361 354.816 259.286 C 356.379 257.785 356.081 254.015 357.487 252.746 C 358.347 251.968 367.532 243.376 368.59 242.136 C 371.654 238.547 374.914 223.639 377.727 220.478 C 378.601 219.496 378.553 219.637 379.414 219.606 Z" style="stroke-width: 2px; stroke: rgb(168, 218, 220); fill: rgb(168, 218, 220);"></path>
  <path fill="rgb(255,0,0)" stroke="rgb(255,0,0)" stroke-width="0" d="M 265.358 218.061 C 266.901 218.007 270.794 195.337 278.585 197.567 C 286.752 199.905 275.248 223.682 274.515 227.218 C 273.036 234.353 257.836 258.699 254.021 263.41 C 252.563 265.21 252.236 264.37 250.968 265.59 C 248.884 267.598 244.204 273.916 242.684 275.619 C 241.987 276.4 242.128 276.218 241.375 276.927 C 239.768 278.443 236.923 282.624 232.218 285.212 C 225.171 289.09 206.301 296.231 199.951 295.677 C 196.368 295.365 194.137 292.866 193.41 290.881 C 192.734 289.035 194.369 285.607 195.154 284.34 C 195.654 283.535 195.594 283.828 196.899 283.032 C 201.02 280.518 225.819 269.004 230.91 264.718 C 233.276 262.727 234.589 261.7 235.707 260.503 C 236.653 259.488 238.765 258.816 239.922 257.741 C 241.539 256.24 241.23 252.47 242.684 251.201 C 243.574 250.423 253.071 241.831 254.166 240.591 C 257.334 237.002 260.705 222.094 263.614 218.933 C 264.518 217.951 264.468 218.092 265.358 218.061 Z" style="fill: rgb(166, 209, 48); stroke: rgb(129, 151, 57); stroke-width: 2px; transform-box: fill-box; transform-origin: 50% 50%;" transform="matrix(0, 0, 0, 1, 193.24993896484375, 0)"></path>
  <path stroke-width="0" d="M 193.505 279.71 C 194.981 279.764 198.705 302.434 206.158 300.204 C 213.971 297.866 202.966 274.089 202.265 270.553 C 200.851 263.418 186.309 239.072 182.66 234.361 C 181.265 232.561 180.953 233.401 179.74 232.181 C 177.745 230.173 173.269 223.855 171.815 222.152 C 171.147 221.371 171.282 221.553 170.562 220.844 C 169.025 219.328 166.304 215.147 161.803 212.559 C 155.061 208.681 137.009 201.54 130.935 202.094 C 127.507 202.406 125.373 204.905 124.677 206.89 C 124.032 208.736 125.595 212.164 126.346 213.431 C 126.825 214.236 126.767 213.943 128.015 214.739 C 131.957 217.253 155.682 228.767 160.551 233.053 C 162.815 235.044 164.071 236.071 165.141 237.268 C 166.045 238.283 168.066 238.955 169.172 240.03 C 170.719 241.531 170.423 245.301 171.815 246.57 C 172.666 247.348 181.751 255.94 182.799 257.18 C 185.829 260.769 189.054 275.677 191.836 278.838 C 192.701 279.82 192.653 279.679 193.505 279.71 Z" style="stroke-width: 2px; transform-box: fill-box; transform-origin: 50% 50%; fill: rgb(168, 218, 220); stroke: rgb(168, 218, 220);" transform="matrix(-1, 0, 0, -1, 0.000001, -0.000003)"></path>
  <ellipse style="fill: rgb(185, 223, 225); stroke: rgb(185, 223, 225);" cx="124.586" cy="148.887" rx="9.884" ry="8.14"></ellipse>
  <ellipse style="fill: rgb(168, 218, 220); stroke: rgb(168, 218, 220);" cx="212.957" cy="297.142" rx="11.047" ry="10.175"></ellipse>
  <ellipse style="fill: rgb(172, 220, 222); stroke: rgb(172, 220, 222);" cx="396.097" cy="179.118" rx="9.884" ry="8.14"></ellipse>
  <ellipse style="fill: rgb(221, 240, 241); stroke: rgb(221, 240, 241);" cx="139.119" cy="116.909" rx="9.884" ry="8.14"></ellipse>
  <ellipse style="fill: rgb(244, 248, 248); stroke: rgb(244, 248, 248);" cx="334.468" cy="71.56" rx="9.884" ry="8.14"></ellipse>
  <ellipse style="fill: rgb(231, 243, 244); stroke: rgb(231, 243, 244);" cx="360.05" cy="91.909" rx="9.884" ry="8.14"></ellipse>
  <ellipse style="fill: rgb(185, 223, 225); stroke: rgb(185, 223, 225);" cx="390.864" cy="146.56" rx="9.884" ry="8.14"></ellipse>
  <ellipse style="fill: rgb(221, 240, 241); stroke: rgb(221, 240, 241);" cx="376.33" cy="118.072" rx="9.884" ry="8.14"></ellipse>
  <ellipse style="fill: rgb(231, 243, 244); stroke: rgb(231, 243, 244);" cx="159.47" cy="91.327" rx="9.884" ry="8.14"></ellipse>
  <ellipse style="fill: rgb(244, 248, 248); stroke: rgb(244, 248, 248);" cx="185.632" cy="69.816" rx="9.884" ry="8.14"></ellipse>
  <path d="M 383.45 456.291 Q 390 449.741 396.55 456.291 L 407.709 467.45 Q 414.259 474 407.709 480.55 L 396.55 491.709 Q 390 498.259 383.45 491.709 L 372.291 480.55 Q 365.741 474 372.291 467.45 Z" bx:shape="n-gon 390 474 24.259 24.259 4 0.27 1@dd03b222" style="fill: rgb(244, 162, 97); stroke: rgb(244, 162, 97);" transform="matrix(0.718987514263, -0.695022988349, 0.695022988349, 0.718987514263, -351.539816746894, 234.376558593713)"></path>
  <path d="M 383.45 456.291 Q 390 449.741 396.55 456.291 L 407.709 467.45 Q 414.259 474 407.709 480.55 L 396.55 491.709 Q 390 498.259 383.45 491.709 L 372.291 480.55 Q 365.741 474 372.291 467.45 Z" bx:shape="n-gon 390 474 24.259 24.259 4 0.27 1@dd03b222" style="fill: rgb(168, 218, 220); stroke: rgb(168, 218, 220);" transform="matrix(0.718987103227, -0.695023413558, 0.695023413558, 0.718987103227, -351.539893516015, 241.935554478098)"></path>
  <path d="M 383.45 456.291 Q 390 449.741 396.55 456.291 L 407.709 467.45 Q 414.259 474 407.709 480.55 L 396.55 491.709 Q 390 498.259 383.45 491.709 L 372.291 480.55 Q 365.741 474 372.291 467.45 Z" bx:shape="n-gon 390 474 24.259 24.259 4 0.27 1@dd03b222" style="fill: rgb(244, 162, 97); stroke: rgb(244, 162, 97);" transform="matrix(0.718986575035, -0.695023959961, 0.695023959961, 0.718986575035, -352.121209837319, 248.912335790401)"></path>
  <ellipse style="fill: rgb(244, 248, 248); stroke: rgb(244, 248, 248);" cx="300.748" cy="62.258" rx="9.884" ry="8.14"></ellipse>
  <ellipse style="fill: rgb(244, 248, 248); stroke: rgb(244, 248, 248);" cx="264.702" cy="56.444" rx="9.884" ry="8.14"></ellipse>
  <ellipse style="fill: rgb(244, 248, 248); stroke: rgb(244, 248, 248);" cx="223.422" cy="57.025" rx="9.884" ry="8.14"></ellipse>
  <text style="fill: rgb(244, 162, 97); font-family: &quot;Bagel Fat One&quot;; font-size: 28px; stroke: rgb(255, 255, 255); white-space: pre;" x="150.748" y="366.328">FIND YOUR WAY

</text>
</svg>